# xmcd
#
# Track frame offsets:
#	150
#	20642
#	33545
#	46905
#	63701
#	76456
#	94948
#	110871
#	126505
#	145812
#	159798
#	174496
#	188724
#	202844
#	215665
#	232009
#	248600
#
# Disc length: 3516 seconds
#
# Revision: 1
# Processed by: cddbd v1.5.2PL0 Copyright (c) Steve Scherf et al.
# Submitted via: audiograbber 1.83.01
#
DISCID=f30dba11
DTITLE=Various Artist - Zoom Country Superhits Disc 1
DYEAR=1900
DGENRE=Karaoke
TTITLE0=Kenny Rogers - Coward Of the County
TTITLE1=Tammy Wynette - Stand By Your Man
TTITLE2=Dolly Parton - 9 To 5
TTITLE3=Billie Jo Spears - Blanket On The Ground
TTITLE4=Johnny Cash - Folsom Prison Blues
TTITLE5=Marty Robbins - Big Iron
TTITLE6=Billy Ray Cyrus - Achy Breaky Heart
TTITLE7=Jeannie C. Cyrus - Harper Valley PTA
TTITLE8=Dolly Parton and Kenny Rogers - Islands In The Stream
TTITLE9=Charley Pride - Crystal Chandeliers
TTITLE10=Don Williams - I Recall A Gypsy Woman
TTITLE11=Tammy Wynette - D.I.V.O.R.C.E.
TTITLE12=Lynn Anderson - Rose Garden
TTITLE13=Crystal Gayle - Don't It Make My Brown Eyes Blue
TTITLE14=Glen Campbell - Rhinestone Cowbody
TTITLE15=Bellamy Brothers - If I Said You Had A Beautiful Body 
TTITLE16=John Denver - Take Me Home Country Roads
EXTD=
EXTT0=
EXTT1=
EXTT2=
EXTT3=
EXTT4=
EXTT5=
EXTT6=
EXTT7=
EXTT8=
EXTT9=
EXTT10=
EXTT11=
EXTT12=
EXTT13=
EXTT14=
EXTT15=
EXTT16=
PLAYORDER=
